# xmcd
#
# Track frame offsets:
#	150
#	11413
#	25597
#	42208
#	55185
#	66290
#	80904
#	91690
#	108409
#	126856
#	139215
#	152725
#
# Disc length: 2239 seconds
#
# Revision: 0
# Processed by: cddbd v1.5.2PL0 Copyright (c) Steve Scherf et al.
# Submitted via: audiograbber 1.83.01
#
DISCID=9608bd0c
DTITLE=Roger Whittaker - My Favourite Songs
DYEAR=1975
DGENRE=Pop
TTITLE0=Hello, Good Morning, Happy Day
TTITLE1=Durham Town
TTITLE2=Mammy Blue
TTITLE3=Sugar My Tea
TTITLE4=Morning, Please Don't Come
TTITLE5=I Don't Believe In If Anymore
TTITLE6=New World In The Morning
TTITLE7=Dirty Old Town
TTITLE8=500 Miles Away From Home
TTITLE9=Why
TTITLE10=I Should Have Taken My Time
TTITLE11=Scarborough Fair
EXTD=
EXTT0=
EXTT1=
EXTT2=
EXTT3=
EXTT4=
EXTT5=
EXTT6=
EXTT7=
EXTT8=
EXTT9=
EXTT10=
EXTT11=
PLAYORDER=
